<?xml version="1.0" encoding="utf-8"?><!DOCTYPE svg PUBLIC "-//W3C//DTD SVG 1.1//EN" "http://www.w3.org/Graphics/SVG/1.1/DTD/svg11.dtd"><svg version="1.1" id="图形" xmlns="http://www.w3.org/2000/svg" xmlns:xlink="http://www.w3.org/1999/xlink" x="0px" y="0px" width="1024px" height="1024px" viewBox="0 0 1024 1024" enable-background="new 15.167 -16.333 1024 1024" xml:space="preserve"><path fill="#00bb9c" d="M951.975936 704.146176c-2.75968 2.184192-6.536192 2.57024-9.614336 0.944128L74.161152 261.116672c-3.231744-1.659904-5.136384-5.085184-4.855808-8.702976 0.318464-3.615744 2.761728-6.690816 6.221824-7.794688l290.622464-92.377088c3.057664-0.959488 6.360064-0.242688 8.704 1.88928L776.901632 516.368128 455.88992 136.392448c-1.941504-2.28864-2.604032-5.41696-1.747968-8.29952 0.854016-2.884608 3.09248-5.157888 5.971968-6.030336l322.486272-98.23232c0.833536-0.263168 1.714176-0.384 2.5856-0.384 1.533952 0 3.072 0.402432 4.438016 1.17248 2.12992 1.220608 3.6864 3.265536 4.261888 5.661696L955.117568 695.008C955.943936 698.413824 954.715136 701.978368 951.975936 704.146176zM554.471424 51.514112l-89.129984 27.4176c-2.692096 0.874496-5.659648 0.349184-7.933952-1.343488-2.289664-1.698816-3.636224-4.370432-3.636224-7.201792l0-168.221696c0-3.986432 2.624512-7.48032 6.464512-8.597504 0.805888-0.228352 1.645568-0.350208 2.48832-0.350208 3.004416 0 5.885952 1.52064 7.549952 4.160512l89.119744 140.798976c1.504256 2.361344 1.819648 5.279744 0.841728 7.882752C559.273984 48.680704 557.140992 50.690816 554.471424 51.514112z" transform="translate(0, 800) scale(1, -1)"/></svg>