<?xml version="1.0" encoding="utf-8"?><!DOCTYPE svg PUBLIC "-//W3C//DTD SVG 1.1//EN" "http://www.w3.org/Graphics/SVG/1.1/DTD/svg11.dtd"><svg version="1.1" id="图形" xmlns="http://www.w3.org/2000/svg" xmlns:xlink="http://www.w3.org/1999/xlink" x="0px" y="0px" width="1024px" height="1024px" viewBox="0 0 1024 1024" enable-background="new 15.167 -16.333 1024 1024" xml:space="preserve"><path fill="#00bb9c" d="M879.699968-146.456832c-43.482112 0-78.742528 35.244032-78.742528 78.734336 0 361.746432-294.293504 656.039936-656.03072 656.039936-43.455488 0-78.716928 35.244032-78.716928 78.726144 0 43.47392 35.26144 78.716928 78.716928 78.716928 448.595968 0 813.517824-364.921856 813.517824-813.483008C958.44352-111.2128 923.183104-146.456832 879.699968-146.456832zM581.081088-146.456832c-43.464704 0-78.716928 35.244032-78.716928 78.734336 0 197.090304-160.37376 357.420032-357.438464 357.420032-43.455488 0-78.716928 35.253248-78.716928 78.726144 0 43.464704 35.26144 78.726144 78.716928 78.726144 283.915264 0 514.889728-230.98368 514.889728-514.87232C659.816448-111.2128 624.5632-146.456832 581.081088-146.456832zM351.176704-1.92128c0-77.53216-62.86336-140.411904-140.412928-140.411904S70.35904-79.45344 70.35904-1.92128c0 77.576192 62.854144 140.422144 140.404736 140.422144S351.176704 75.654912 351.176704-1.92128z" transform="translate(0, 800) scale(1, -1)"/></svg>