<?xml version="1.0" encoding="utf-8" ?>
<!DOCTYPE svg PUBLIC "-//W3C//DTD SVG 1.1//EN" "http://www.w3.org/Graphics/SVG/1.1/DTD/svg11.dtd">
<svg version="1.1" id="图形" xmlns="http://www.w3.org/2000/svg" xmlns:xlink="http://www.w3.org/1999/xlink" x="0px" y="0px" width="16px" height="16px" viewBox="0 0 16 16" enable-background="new 15.167 -16.333 1000 1024" xml:space="preserve">
    <path fill="#00bb9c" d="M312 -21q0 9 9 9t9 -9t-9 -9t-9 9zM271 -11q0 9 9 9q10 0 10 -9q0 -10 -10 -10q-9 0 -9 10zM501 802q104 0 195.5 -39.5t159.5 -107.5t107.5 -159.5t39.5 -195.5q0 -81 -24.5 -155.5t-68 -136t-104.5 -108t-133 -72.5q-11 -2 -25 -1t-17 18q-2 12 -3.5 32t-2 41t-1 40 t-0.5 28t-3.5 23t-8 27t-9 23.5t-6.5 13.5q-2 2 14 4.5t40.5 9.5t53.5 20t54 34.5t41.5 53t16.5 76.5q0 68 -8 106t-17 57q-11 22 -25 28q6 33 9 60q2 23 0.5 44t-12.5 27q-11 5 -32.5 -2t-44.5 -18q-26 -13 -56 -32q-15 5 -33 9q-16 4 -38 7t-49 3t-51.5 -3t-43.5 -6 q-22 -4 -41 -9q-30 17 -56 29q-23 11 -45 18t-32 3q-11 -5 -13.5 -25.5t-1.5 -44.5q1 -28 5 -62q-14 -15 -25 -36q-10 -18 -17.5 -44t-7.5 -58q0 -46 9.5 -81t25.5 -60.5t36.5 -43t41.5 -28.5q50 -26 114 -30q-8 -9 -14 -17q-5 -7 -9 -13.5t-4 -9.5t-0.5 -7.5t-1.5 -9.5 l-2 -10q-10 -4 -21 -7q-9 -3 -20 -5t-22 -2t-27 11.5t-32.5 26.5t-30 29.5t-19.5 20.5q-6 5 -16 8.5t-20 5.5t-18 2.5t-11 -0.5q-6 -3 -9 -8.5t5 -8.5q4 -2 11.5 -7.5t15.5 -13t15 -15t10 -12.5t9 -22t19.5 -35t36 -32t60.5 -14q26 0 39.5 0.5t20.5 1.5v-77q0 -6 -1.5 -13.5 t-5.5 -13t-11 -8t-18 0.5q-2 1 -6 1q-73 26 -134 72.5t-105.5 108.5t-69.5 136.5t-25 156.5q0 104 39.5 195.5t107.5 159.5t160 107.5t196 39.5zM374 -58q4 -1 6 -2q5 -3 -6 -4v6zM354 -14q0 10 9 10t9 -10q0 -9 -9 -9t-9 9zM176 86q0 6 7 6t7 -6q0 -7 -7 -7t-7 7zM243 10 q0 9 9 9t9 -9q0 -10 -9 -10t-9 10zM205 71q7 0 7 -7t-7 -7t-7 7t7 7zM215 38q0 9 9 9t9 -9q0 -10 -9 -10t-9 10z" transform="translate(0, 800) scale(1, -1)" />
</svg>