<?xml version="1.0" encoding="utf-8"?><!DOCTYPE svg PUBLIC "-//W3C//DTD SVG 1.1//EN" "http://www.w3.org/Graphics/SVG/1.1/DTD/svg11.dtd"><svg version="1.1" id="图形" xmlns="http://www.w3.org/2000/svg" xmlns:xlink="http://www.w3.org/1999/xlink" x="0px" y="0px" width="1000px" height="1024px" viewBox="0 0 1000 1024" enable-background="new 15.167 -16.333 1000 1024" xml:space="preserve"><path fill="#00bb9c" d="M739.3803 310.5312c-38.6902 7.4946-19.866 28.311-19.866 28.311s37.8583 62.4528-7.4947 107.8341c-56.2365 56.2086-192.8588-7.1674-192.8588-7.1674-52.1919-16.2059-38.3329 7.4072-30.9581 47.5235 0 47.2837-16.2073 127.3115-155.2079 80.0265C194.1454 519.5368 74.8921 353.0583 74.8921 353.0583-8.0193 242.3999 2.9829 156.9011 2.9829 156.9011 23.6795-31.879 224.2704-83.7156 380.2827-95.9969c164.1291-12.8471 385.6839 56.5933 452.8352 199.2788C900.2992 246.206 778.2179 302.7693 739.3803 310.5312zM392.4441-42.7649c-162.9687-7.6121-294.6819 74.107-294.6819 182.833 0 108.8747 131.7132 196.1572 294.6819 203.6819 163.0311 7.5246 295.0116-59.6861 295.0116-168.2922C687.4557 66.7343 555.4739-35.329 392.4441-42.7649zM359.9108 272.05C196.049 252.8674 214.9619 99.3572 214.9619 99.3572s-1.6651-48.6202 43.9552-73.365c95.876-51.9229 194.6101-20.4903 244.5136 43.9236C553.3317 134.3584 524.0699 291.0814 359.9108 272.05zM318.5725 56.5928c-30.5709-3.6012-55.2547 14.0674-55.2547 39.6417 0 25.5168 21.917 52.1914 52.5204 55.3729 35.1527 3.3613 58.0515-16.8892 58.0515-42.4959C373.8884 83.626 349.086 60.0715 318.5725 56.5928zM415.1943 138.8827c-10.3777-7.7332-23.1049-6.6627-28.5786 2.6156-5.7097 9.071-3.5662 23.6131 6.8976 31.2252 12.1352 9.041 24.775 6.4254 30.2461-2.6156C429.2618 160.827 425.3346 146.8795 415.1943 138.8827zM819.2002 376.97c13.2044 0 24.4452 9.7818 26.3164 22.5389 0.2411 0.9531 0.3597 1.7862 0.3597 2.858 20.0146 179.9476-147.4783 148.9897-147.4783 148.9897-14.8695 0-26.7648-12.0451-26.7648-27.0619 0-14.7495 11.8941-26.7659 26.7648-26.7659 120.3238 26.5273 93.77-93.7355 93.77-93.7355C792.1693 388.8939 804.2682 376.97 819.2002 376.97zM799.689 691.0991c-57.9303 13.5591-117.467 1.8737-134.1503-1.339-1.2791-0.1187-2.4982-1.3078-3.6874-1.5451-0.5659-0.1212-0.9231-0.7145-0.9231-0.7145-16.4734-4.6704-28.4911-19.897-28.4911-37.8867 0-21.4434 17.3677-39.0796 39.0787-39.0796 0 0 21.0539 2.8267 35.3588 8.4165 14.1862 5.7109 134.0953 4.2532 193.692-95.789 32.4746-73.0078 14.2737-121.8679 12.0115-129.7198 0 0-7.7295-18.9714-7.7295-37.6506 0-21.5596 17.3677-35.0912 38.9-35.0912 18.021 0 33.1279 2.4395 37.5585 32.8915h0.24107973743543623C1045.5154 566.7605 903.3008 666.9202 799.689 691.0991z" transform="translate(0, 800) scale(1, -1)"/></svg>